<svg width="908" height="139" viewBox="0 0 908 139" fill="none" xmlns="http://www.w3.org/2000/svg">
<path d="M0.959443 89.4815C0.959443 82.7602 2.0207 76.4516 4.14322 70.5557C6.38366 64.5419 9.56743 59.3535 13.6946 54.9906C17.8217 50.5097 22.8332 46.9722 28.7291 44.378C34.6249 41.7838 41.3462 40.4867 48.893 40.4867C53.8455 40.4867 58.3853 40.9584 62.5125 41.9017C66.6396 42.7271 70.6488 43.9653 74.5401 45.6161L69.0569 66.6644C66.5806 65.7211 63.8685 64.8956 60.9206 64.1881C57.9726 63.4806 54.6709 63.1269 51.0155 63.1269C43.2329 63.1269 37.396 65.5442 33.5047 70.3788C29.7314 75.2134 27.8447 81.581 27.8447 89.4815C27.8447 97.8536 29.6134 104.339 33.151 108.938C36.8064 113.537 43.115 115.836 52.0768 115.836C55.2605 115.836 58.6801 115.541 62.3356 114.952C65.991 114.362 69.3517 113.419 72.4176 112.122L76.132 133.701C73.0661 134.998 69.2338 136.118 64.635 137.061C60.0362 138.005 54.9657 138.476 49.4236 138.476C40.9335 138.476 33.6226 137.238 27.4909 134.762C21.3592 132.168 16.2887 128.689 12.2795 124.326C8.38826 119.963 5.49927 114.834 3.61259 108.938C1.84383 102.924 0.959443 96.4386 0.959443 89.4815ZM176.352 89.3046C176.352 96.6155 175.291 103.337 173.168 109.469C171.046 115.482 167.98 120.671 163.97 125.034C159.961 129.279 155.127 132.58 149.467 134.939C143.924 137.297 137.675 138.476 130.718 138.476C123.878 138.476 117.629 137.297 111.969 134.939C106.427 132.58 101.651 129.279 97.6418 125.034C93.6326 120.671 90.5078 115.482 88.2673 109.469C86.0269 103.337 84.9067 96.6155 84.9067 89.3046C84.9067 81.9937 86.0269 75.3314 88.2673 69.3176C90.6257 63.3038 93.8095 58.1743 97.8187 53.9293C101.946 49.6843 106.78 46.3826 112.323 44.0242C117.983 41.6659 124.114 40.4867 130.718 40.4867C137.439 40.4867 143.571 41.6659 149.113 44.0242C154.773 46.3826 159.608 49.6843 163.617 53.9293C167.626 58.1743 170.751 63.3038 172.991 69.3176C175.232 75.3314 176.352 81.9937 176.352 89.3046ZM149.467 89.3046C149.467 81.1683 147.816 74.8007 144.514 70.2019C141.33 65.4852 136.732 63.1269 130.718 63.1269C124.704 63.1269 120.046 65.4852 116.744 70.2019C113.443 74.8007 111.792 81.1683 111.792 89.3046C111.792 97.4409 113.443 103.926 116.744 108.761C120.046 113.478 124.704 115.836 130.718 115.836C136.732 115.836 141.33 113.478 144.514 108.761C147.816 103.926 149.467 97.4409 149.467 89.3046ZM276.185 132.816C271.704 134.113 265.926 135.292 258.851 136.354C251.776 137.533 244.347 138.123 236.564 138.123C228.664 138.123 222.061 137.061 216.754 134.939C211.566 132.816 207.439 129.868 204.373 126.095C201.307 122.204 199.126 117.605 197.829 112.299C196.531 106.992 195.883 101.155 195.883 94.7878V42.963H222.237V91.604C222.237 100.094 223.358 106.226 225.598 109.999C227.839 113.773 232.025 115.659 238.156 115.659C240.043 115.659 242.048 115.6 244.17 115.482C246.293 115.246 248.179 115.011 249.83 114.775V42.963H276.185V132.816ZM356.994 66.3107C354.636 65.7211 351.864 65.1315 348.681 64.5419C345.497 63.8344 342.077 63.4806 338.422 63.4806C336.771 63.4806 334.766 63.6575 332.408 64.0113C330.168 64.2471 328.458 64.5419 327.279 64.8956V136H300.924V47.9155C305.641 46.2647 311.183 44.7317 317.55 43.3167C324.036 41.7838 331.229 41.0173 339.129 41.0173C340.544 41.0173 342.254 41.1352 344.259 41.3711C346.263 41.489 348.268 41.7248 350.273 42.0786C352.277 42.3144 354.282 42.6682 356.286 43.1398C358.291 43.4936 360.001 43.9653 361.416 44.5548L356.994 66.3107ZM402.252 117.074C407.087 117.074 410.506 116.603 412.511 115.659C414.516 114.716 415.518 112.888 415.518 110.176C415.518 108.054 414.221 106.226 411.627 104.693C409.032 103.042 405.082 101.214 399.776 99.2097C395.649 97.6768 391.875 96.0849 388.456 94.434C385.154 92.7832 382.324 90.8375 379.966 88.5971C377.607 86.2387 375.78 83.4677 374.483 80.2839C373.185 77.1001 372.537 73.2678 372.537 68.7869C372.537 60.061 375.78 53.1628 382.265 48.0924C388.751 43.0219 397.653 40.4867 408.973 40.4867C414.633 40.4867 420.058 41.0173 425.246 42.0786C430.434 43.0219 434.562 44.0832 437.627 45.2624L433.029 65.78C429.963 64.7188 426.602 63.7754 422.947 62.95C419.409 62.1246 415.4 61.7119 410.919 61.7119C402.665 61.7119 398.538 64.0113 398.538 68.6101C398.538 69.6713 398.715 70.6147 399.068 71.4401C399.422 72.2655 400.13 73.0909 401.191 73.9163C402.252 74.6239 403.667 75.4493 405.436 76.3926C407.323 77.218 409.681 78.1614 412.511 79.2226C418.289 81.3452 423.065 83.4677 426.838 85.5902C430.611 87.5948 433.559 89.8352 435.682 92.3115C437.922 94.6699 439.455 97.323 440.281 100.271C441.224 103.219 441.696 106.639 441.696 110.53C441.696 119.727 438.217 126.685 431.26 131.401C424.421 136.118 414.692 138.476 402.075 138.476C393.821 138.476 386.923 137.769 381.381 136.354C375.956 134.939 372.183 133.76 370.061 132.816L374.483 111.414C378.963 113.183 383.562 114.598 388.279 115.659C392.996 116.603 397.653 117.074 402.252 117.074ZM456.969 90.189C456.969 81.9347 458.207 74.7418 460.684 68.6101C463.278 62.3604 466.638 57.172 470.766 53.0449C474.893 48.9178 479.609 45.793 484.916 43.6705C490.34 41.5479 495.882 40.4867 501.542 40.4867C514.749 40.4867 525.185 44.5548 532.849 52.6912C540.514 60.7096 544.346 72.5603 544.346 88.2433C544.346 89.7763 544.287 91.4861 544.169 93.3728C544.051 95.1415 543.933 96.7334 543.816 98.1484H484.031C484.621 103.573 487.156 107.877 491.637 111.06C496.118 114.244 502.132 115.836 509.678 115.836C514.513 115.836 519.23 115.423 523.828 114.598C528.545 113.655 532.377 112.534 535.325 111.237L538.863 132.639C537.448 133.347 535.561 134.054 533.203 134.762C530.845 135.469 528.191 136.059 525.243 136.531C522.413 137.12 519.348 137.592 516.046 137.946C512.744 138.299 509.443 138.476 506.141 138.476C497.769 138.476 490.458 137.238 484.208 134.762C478.076 132.286 472.947 128.925 468.82 124.68C464.811 120.317 461.804 115.188 459.799 109.292C457.912 103.396 456.969 97.0282 456.969 90.189ZM518.876 80.107C518.758 77.8666 518.345 75.6851 517.638 73.5626C517.048 71.4401 516.046 69.5534 514.631 67.9025C513.334 66.2517 511.624 64.8956 509.501 63.8344C507.497 62.7731 504.962 62.2425 501.896 62.2425C498.948 62.2425 496.413 62.7731 494.29 63.8344C492.168 64.7777 490.399 66.0748 488.984 67.7257C487.569 69.3765 486.449 71.3222 485.623 73.5626C484.916 75.6851 484.385 77.8666 484.031 80.107H518.876Z" fill="#5BA092"/>
<path d="M564.684 46.1467C569.165 44.8496 574.943 43.6705 582.018 42.6092C589.093 41.43 596.522 40.8404 604.304 40.8404C612.205 40.8404 618.749 41.9017 623.938 44.0242C629.244 46.0288 633.43 48.9178 636.496 52.6912C639.562 56.4645 641.743 60.9454 643.04 66.1338C644.338 71.3222 644.986 77.1001 644.986 83.4677V136H618.631V86.6515C618.631 78.1614 617.511 72.1476 615.271 68.6101C613.03 65.0725 608.844 63.3038 602.713 63.3038C600.826 63.3038 598.821 63.4217 596.699 63.6575C594.576 63.7754 592.69 63.9523 591.039 64.1881V136H564.684V46.1467ZM695.196 136H668.841V42.963H695.196V136ZM697.672 16.0777C697.672 20.9124 696.08 24.7447 692.896 27.5747C689.83 30.2868 686.175 31.6429 681.93 31.6429C677.685 31.6429 673.97 30.2868 670.787 27.5747C667.721 24.7447 666.188 20.9124 666.188 16.0777C666.188 11.2431 667.721 7.46974 670.787 4.75763C673.97 1.92761 677.685 0.512599 681.93 0.512599C686.175 0.512599 689.83 1.92761 692.896 4.75763C696.08 7.46974 697.672 11.2431 697.672 16.0777ZM719.969 46.1467C724.45 44.8496 730.228 43.6705 737.303 42.6092C744.378 41.43 751.807 40.8404 759.59 40.8404C767.49 40.8404 774.035 41.9017 779.223 44.0242C784.529 46.0288 788.715 48.9178 791.781 52.6912C794.847 56.4645 797.029 60.9454 798.326 66.1338C799.623 71.3222 800.271 77.1001 800.271 83.4677V136H773.917V86.6515C773.917 78.1614 772.796 72.1476 770.556 68.6101C768.316 65.0725 764.129 63.3038 757.998 63.3038C756.111 63.3038 754.106 63.4217 751.984 63.6575C749.861 63.7754 747.975 63.9523 746.324 64.1881V136H719.969V46.1467ZM819.704 90.189C819.704 81.9347 820.942 74.7418 823.419 68.6101C826.013 62.3604 829.373 57.172 833.5 53.0449C837.628 48.9178 842.344 45.793 847.651 43.6705C853.075 41.5479 858.617 40.4867 864.277 40.4867C877.484 40.4867 887.92 44.5548 895.584 52.6912C903.249 60.7096 907.081 72.5603 907.081 88.2433C907.081 89.7763 907.022 91.4861 906.904 93.3728C906.786 95.1415 906.668 96.7334 906.55 98.1484H846.766C847.356 103.573 849.891 107.877 854.372 111.06C858.853 114.244 864.867 115.836 872.413 115.836C877.248 115.836 881.965 115.423 886.563 114.598C891.28 113.655 895.112 112.534 898.06 111.237L901.598 132.639C900.183 133.347 898.296 134.054 895.938 134.762C893.58 135.469 890.926 136.059 887.978 136.531C885.148 137.12 882.083 137.592 878.781 137.946C875.479 138.299 872.177 138.476 868.876 138.476C860.504 138.476 853.193 137.238 846.943 134.762C840.811 132.286 835.682 128.925 831.555 124.68C827.546 120.317 824.539 115.188 822.534 109.292C820.647 103.396 819.704 97.0282 819.704 90.189ZM881.611 80.107C881.493 77.8666 881.08 75.6851 880.373 73.5626C879.783 71.4401 878.781 69.5534 877.366 67.9025C876.069 66.2517 874.359 64.8956 872.236 63.8344C870.232 62.7731 867.697 62.2425 864.631 62.2425C861.683 62.2425 859.148 62.7731 857.025 63.8344C854.903 64.7777 853.134 66.0748 851.719 67.7257C850.304 69.3765 849.184 71.3222 848.358 73.5626C847.651 75.6851 847.12 77.8666 846.766 80.107H881.611Z" fill="#E3562A"/>
</svg>
