<svg width="25" height="24" viewBox="0 0 25 24" fill="none" xmlns="http://www.w3.org/2000/svg">
<path fill-rule="evenodd" clip-rule="evenodd" d="M2.92554 12C2.92554 6.48 7.39554 2 12.9155 2C18.4455 2 22.9255 6.48 22.9255 12C22.9255 17.52 18.4455 22 12.9155 22C7.39554 22 2.92554 17.52 2.92554 12ZM4.92554 12C4.92554 16.42 8.50554 20 12.9255 20C17.3455 20 20.9255 16.42 20.9255 12C20.9255 7.58 17.3455 4 12.9255 4C8.50554 4 4.92554 7.58 4.92554 12ZM11.9255 7H13.4255V12.25L17.9255 14.92L17.1755 16.15L11.9255 13V7Z" fill="#5BA092"/>
</svg>
