<svg width="19" height="16" viewBox="0 0 19 16" fill="none" xmlns="http://www.w3.org/2000/svg">
<path fill-rule="evenodd" clip-rule="evenodd" d="M17.8963 8.82405C18.2996 8.77278 18.6119 8.42326 18.6119 8.00017C18.6119 7.54181 18.2454 7.16981 17.7938 7.16981L3.41121 7.16981L8.60721 1.91866L8.68071 1.83385C8.92573 1.50912 8.90139 1.04236 8.60939 0.743986C8.29085 0.419596 7.77267 0.418489 7.45303 0.741774L0.853029 7.41228L0.780247 7.4958C0.669514 7.64188 0.611938 7.82026 0.611938 8.00017C0.611938 8.10756 0.632666 8.21495 0.67412 8.31681C0.800666 8.62791 1.09848 8.83052 1.43012 8.83052H17.7938L17.8963 8.82405ZM8.6095 15.256C8.92805 14.9305 8.92805 14.4046 8.60732 14.0813L4.96696 10.4023L4.88291 10.328C4.56143 10.0804 4.10259 10.1062 3.81059 10.4045C3.65132 10.5673 3.57168 10.7787 3.57168 10.9902C3.57168 11.2039 3.65132 11.4165 3.81277 11.5792L7.45205 15.2582L7.53611 15.3323C7.85775 15.5791 8.3175 15.5534 8.6095 15.256Z" fill="#666666"/>
</svg>
