<svg width="19" height="16" viewBox="0 0 19 16" fill="none" xmlns="http://www.w3.org/2000/svg">
<path fill-rule="evenodd" clip-rule="evenodd" d="M18.2099 8.82405C18.6132 8.77278 18.9255 8.42326 18.9255 8.00017C18.9255 7.54181 18.559 7.16981 18.1074 7.16981L3.72481 7.16981L8.92081 1.91866L8.99431 1.83385C9.23933 1.50912 9.21499 1.04236 8.92299 0.743986C8.60445 0.419596 8.08626 0.418489 7.76663 0.741774L1.16663 7.41228L1.09385 7.4958C0.983113 7.64188 0.925537 7.82026 0.925537 8.00017C0.925537 8.10756 0.946264 8.21495 0.987719 8.31681C1.11426 8.62791 1.41208 8.83052 1.74372 8.83052H18.1074L18.2099 8.82405ZM8.9231 15.256C9.24165 14.9305 9.24165 14.4046 8.92092 14.0813L5.28056 10.4023L5.19651 10.328C4.87502 10.0804 4.41619 10.1062 4.12419 10.4045C3.96492 10.5673 3.88528 10.7787 3.88528 10.9902C3.88528 11.2039 3.96492 11.4165 4.12637 11.5792L7.76565 15.2582L7.84971 15.3323C8.17135 15.5791 8.6311 15.5534 8.9231 15.256Z" fill="#FDFDFD"/>
</svg>
