<svg width="33" height="32" viewBox="0 0 33 32" fill="none" xmlns="http://www.w3.org/2000/svg">
<path fill-rule="evenodd" clip-rule="evenodd" d="M3.99122 15.057C4.51337 14.5363 5.35994 14.5363 5.88209 15.057L11.2303 20.3904C11.7524 20.9111 11.7524 21.7553 11.2303 22.276C10.7081 22.7967 9.86156 22.7967 9.33941 22.276L3.99122 16.9426C3.46907 16.4219 3.46907 15.5777 3.99122 15.057Z" fill="#5BA092"/>
<path fill-rule="evenodd" clip-rule="evenodd" d="M13.3506 16.3905C13.8727 15.8698 14.7193 15.8698 15.2415 16.3905L19.2526 20.3905C19.7748 20.9112 19.7748 21.7554 19.2526 22.2761C18.7305 22.7968 17.8839 22.7968 17.3617 22.2761L13.3506 18.2761C12.8284 17.7554 12.8284 16.9112 13.3506 16.3905Z" fill="#5BA092"/>
<path fill-rule="evenodd" clip-rule="evenodd" d="M21.9266 9.72402C22.4488 10.2447 22.4488 11.0889 21.9266 11.6096L11.2302 22.2763C10.7081 22.797 9.86152 22.797 9.33937 22.2763C8.81722 21.7556 8.81722 20.9114 9.33937 20.3907L20.0357 9.72402C20.5579 9.20332 21.4045 9.20332 21.9266 9.72402Z" fill="#5BA092"/>
<path fill-rule="evenodd" clip-rule="evenodd" d="M29.9491 9.72402C30.4712 10.2447 30.4712 11.0889 29.9491 11.6096L19.2527 22.2763C18.7305 22.797 17.884 22.797 17.3618 22.2763C16.8397 21.7556 16.8397 20.9114 17.3618 20.3907L28.0582 9.72402C28.5803 9.20332 29.4269 9.20332 29.9491 9.72402Z" fill="#5BA092"/>
</svg>
