<svg width="24" height="24" viewBox="0 0 24 24" fill="none" xmlns="http://www.w3.org/2000/svg">
<g clip-path="url(#clip0)">
<path d="M14.828 9.17164C14.633 8.97664 14.316 8.97664 14.121 9.17164C13.926 9.36664 13.926 9.68464 14.121 9.87866C14.687 10.4447 15 11.1977 15 11.9997C15 13.6536 13.654 14.9997 12 14.9997C11.198 14.9997 10.445 14.6877 9.87902 14.1207C9.68402 13.9257 9.36701 13.9257 9.17201 14.1207C8.97701 14.3147 8.97701 14.6327 9.17201 14.8277C9.92599 15.5837 10.931 15.9997 12 15.9997C14.206 15.9997 16 14.2057 16 11.9997C16 10.9306 15.584 9.92563 14.828 9.17164Z" fill="#4C4A46"/>
<path d="M12.6971 8.06851C12.4701 8.02853 12.2381 7.99951 12.0001 7.99951C9.79412 7.99951 8.00012 9.79351 8.00012 11.9995C8.00012 12.2375 8.02914 12.4695 8.07011 12.6965C8.11309 12.9385 8.32412 13.1095 8.56112 13.1095C8.59014 13.1095 8.61911 13.1075 8.64911 13.1015C8.92009 13.0535 9.10211 12.7935 9.05411 12.5225C9.02312 12.3525 9.00011 12.1795 9.00011 11.9995C9.00011 10.3455 10.3461 8.99949 12.0001 8.99949C12.1801 8.99949 12.3531 9.02251 12.5231 9.05251C12.7891 9.10651 13.0541 8.91849 13.1021 8.64751C13.1501 8.37653 12.9681 8.11651 12.6971 8.06851Z" fill="#4C4A46"/>
<path d="M23.881 11.6765C23.768 11.5425 21.063 8.38552 17.332 6.45254C17.09 6.32555 16.785 6.42155 16.658 6.66755C16.531 6.91257 16.627 7.21453 16.873 7.34156C19.747 8.82956 22.043 11.1516 22.828 11.9996C21.636 13.2906 16.945 17.9996 12 17.9996C10.322 17.9996 8.63102 17.5946 6.97202 16.7945C6.72602 16.6736 6.42504 16.7786 6.30504 17.0276C6.18405 17.2756 6.28905 17.5745 6.53805 17.6945C8.33303 18.5615 10.171 18.9995 12.0001 18.9995C18.1611 18.9995 23.6511 12.5955 23.8821 12.3225C24.04 12.1365 24.039 11.8635 23.881 11.6765Z" fill="#4C4A46"/>
<path d="M15.2811 5.57551C14.1431 5.1925 13.0391 4.99951 12 4.99951C5.83904 4.99951 0.349052 11.4035 0.118052 11.6765C-0.0279632 11.8485 -0.0399632 12.0985 0.0900678 12.2855C0.159068 12.3845 1.81206 14.7315 4.67706 16.6345C4.76204 16.6915 4.85706 16.7185 4.95306 16.7185C5.11407 16.7185 5.27307 16.6405 5.36907 16.4935C5.52207 16.2645 5.45907 15.9535 5.22906 15.8015C3.12508 14.4025 1.68508 12.7135 1.14607 12.0265C2.29708 10.7765 7.01907 5.99954 12 5.99954C12.931 5.99954 13.9281 6.17556 14.962 6.52252C15.224 6.61651 15.508 6.47152 15.595 6.20851C15.6831 5.94653 15.543 5.66354 15.2811 5.57551Z" fill="#4C4A46"/>
</g>
<defs>
<clipPath id="clip0">
<rect width="24" height="24" fill="white"/>
</clipPath>
</defs>
</svg>
