<svg width="33" height="20" viewBox="0 0 33 20" fill="none" xmlns="http://www.w3.org/2000/svg">
<path d="M0.336914 9.91506C0.336914 8.64637 0.537233 7.45559 0.937872 6.3427C1.36077 5.20756 1.96173 4.22822 2.74074 3.40469C3.51976 2.5589 4.46571 1.89117 5.5786 1.4015C6.69148 0.911827 7.96017 0.666992 9.38466 0.666992C10.3195 0.666992 11.1764 0.756023 11.9554 0.934085C12.7344 1.08989 13.4912 1.32359 14.2257 1.6352L13.1907 5.6082C12.7233 5.43014 12.2114 5.27433 11.6549 5.14079C11.0985 5.00724 10.4753 4.94047 9.7853 4.94047C8.31629 4.94047 7.21454 5.39675 6.48004 6.30932C5.76779 7.22188 5.41167 8.4238 5.41167 9.91506C5.41167 11.4954 5.74553 12.7195 6.41326 13.5876C7.10325 14.4556 8.29404 14.8897 9.98562 14.8897C10.5866 14.8897 11.2321 14.834 11.922 14.7227C12.612 14.6114 13.2464 14.4334 13.8251 14.1885L14.5262 18.2617C13.9475 18.5065 13.2241 18.718 12.3561 18.896C11.488 19.0741 10.5309 19.1631 9.48482 19.1631C7.88227 19.1631 6.50229 18.9294 5.34489 18.462C4.18749 17.9723 3.23041 17.3157 2.47365 16.4922C1.73915 15.6687 1.19383 14.7005 0.837712 13.5876C0.503847 12.4524 0.336914 11.2283 0.336914 9.91506Z" fill="#5BA092"/>
<path d="M16.897 1.66859C17.7428 1.42375 18.8334 1.20118 20.1689 1.00086C21.5043 0.778281 22.9065 0.666992 24.3756 0.666992C25.8668 0.666992 27.1021 0.867311 28.0815 1.26795C29.0831 1.64633 29.8732 2.19164 30.4519 2.90389C31.0306 3.61614 31.4424 4.46193 31.6872 5.44127C31.932 6.4206 32.0545 7.51123 32.0545 8.71315V18.6289H27.0799V9.3141C27.0799 7.71155 26.8684 6.57641 26.4455 5.90868C26.0226 5.24095 25.2325 4.90708 24.0751 4.90708C23.719 4.90708 23.3406 4.92934 22.9399 4.97386C22.5393 4.99611 22.1832 5.0295 21.8716 5.07401V18.6289H16.897V1.66859Z" fill="#E3562A"/>
</svg>
