<svg width="260" height="156" viewBox="0 0 260 156" fill="none" xmlns="http://www.w3.org/2000/svg">
<ellipse cx="130" cy="134" rx="130" ry="20" fill="url(#paint0_radial)" fill-opacity="0.5"/>
<path d="M88.2754 26H176.025C181.421 25.9996 186.613 28.0641 190.535 31.7699C194.457 35.4756 196.812 40.5418 197.118 45.929L197.15 47.125V108.875C197.151 114.271 195.086 119.462 191.381 123.385C187.675 127.307 182.609 129.662 177.221 129.968L176.025 130H88.2754C82.8795 130 77.688 127.936 73.7659 124.23C69.8438 120.524 67.4884 115.458 67.1829 110.071L67.1504 108.875V47.125C67.15 41.7291 69.2145 36.5376 72.9203 32.6155C76.626 28.6934 81.6922 26.338 87.0794 26.0325L88.2754 26H176.025H88.2754ZM187.4 60.9245L134.425 88.8095C133.827 89.1255 133.17 89.3135 132.495 89.3616C131.82 89.4098 131.143 89.3169 130.506 89.089L129.882 88.816L76.9004 60.931V108.875C76.9005 111.73 77.974 114.48 79.9078 116.58C81.8416 118.68 84.4943 119.976 87.3394 120.211L88.2754 120.25H176.025C178.881 120.25 181.632 119.175 183.732 117.24C185.833 115.305 187.128 112.651 187.361 109.804L187.4 108.875V60.9245ZM176.025 35.75H88.2754C85.4207 35.7501 82.6703 36.8236 80.5703 38.7574C78.4704 40.6912 77.1743 43.3439 76.9394 46.189L76.9004 47.125V49.9135L132.15 78.988L187.4 49.907V47.125C187.4 44.2692 186.326 41.518 184.391 39.4179C182.455 37.3178 179.801 36.0224 176.955 35.789L176.025 35.75Z" fill="#5BA092"/>
<defs>
<radialGradient id="paint0_radial" cx="0" cy="0" r="1" gradientUnits="userSpaceOnUse" gradientTransform="translate(130 134) rotate(90) scale(13.5 87.75)">
<stop stop-color="#5BA092"/>
<stop offset="1" stop-color="#C4C4C4" stop-opacity="0"/>
</radialGradient>
</defs>
</svg>
