<svg width="25" height="24" viewBox="0 0 25 24" fill="none" xmlns="http://www.w3.org/2000/svg">
<path fill-rule="evenodd" clip-rule="evenodd" d="M16.1342 2.50065C16.7652 2.50065 17.3952 2.58965 17.9942 2.79065C21.6852 3.99065 23.0152 8.04065 21.9042 11.5806C21.2742 13.3896 20.2442 15.0406 18.8952 16.3896C16.9642 18.2596 14.8452 19.9196 12.5642 21.3496L12.3142 21.5006L12.0542 21.3396C9.7652 19.9196 7.6342 18.2596 5.6852 16.3796C4.3452 15.0306 3.3142 13.3896 2.6742 11.5806C1.5442 8.04065 2.8742 3.99065 6.6052 2.76965C6.8952 2.66965 7.1942 2.59965 7.4942 2.56065H7.6142C7.8952 2.51965 8.1742 2.50065 8.4542 2.50065H8.5642C9.1942 2.51965 9.8042 2.62965 10.3952 2.83065H10.4542C10.4942 2.84965 10.5242 2.87065 10.5442 2.88965C10.7652 2.96065 10.9742 3.04065 11.1742 3.15065L11.5542 3.32065C11.646 3.36962 11.7491 3.44445 11.8382 3.50912C11.8946 3.55009 11.9454 3.58699 11.9842 3.61065C12.0005 3.62028 12.0171 3.62996 12.0338 3.63972C12.1196 3.68977 12.2089 3.74191 12.2842 3.79965C13.3952 2.95065 14.7442 2.49065 16.1342 2.50065ZM18.7942 9.70065C19.2042 9.68965 19.5542 9.36065 19.5842 8.93965V8.82065C19.6142 7.41965 18.7652 6.15065 17.4742 5.66065C17.0642 5.51965 16.6142 5.74065 16.4642 6.16065C16.3242 6.58065 16.5442 7.04065 16.9642 7.18965C17.6052 7.42965 18.0342 8.06065 18.0342 8.75965V8.79065C18.0152 9.01965 18.0842 9.24065 18.2242 9.41065C18.3642 9.58065 18.5742 9.67965 18.7942 9.70065Z" fill="#666666"/>
</svg>
