<svg width="25" height="24" viewBox="0 0 25 24" fill="none" xmlns="http://www.w3.org/2000/svg">
<path d="M12.9155 2C7.39554 2 2.92554 6.48 2.92554 12C2.92554 17.52 7.39554 22 12.9155 22C18.4455 22 22.9255 17.52 22.9255 12C22.9255 6.48 18.4455 2 12.9155 2ZM19.8455 8H16.8955C16.5755 6.75 16.1155 5.55 15.5155 4.44C17.3555 5.07 18.8855 6.35 19.8455 8ZM12.9255 4.04C13.7555 5.24 14.4055 6.57 14.8355 8H11.0155C11.4455 6.57 12.0955 5.24 12.9255 4.04ZM5.18554 14C5.02554 13.36 4.92554 12.69 4.92554 12C4.92554 11.31 5.02554 10.64 5.18554 10H8.56554C8.48554 10.66 8.42554 11.32 8.42554 12C8.42554 12.68 8.48554 13.34 8.56554 14H5.18554ZM6.00554 16H8.95554C9.27554 17.25 9.73554 18.45 10.3355 19.56C8.49554 18.93 6.96554 17.66 6.00554 16ZM8.95554 8H6.00554C6.96554 6.34 8.49554 5.07 10.3355 4.44C9.73554 5.55 9.27554 6.75 8.95554 8ZM12.9255 19.96C12.0955 18.76 11.4455 17.43 11.0155 16H14.8355C14.4055 17.43 13.7555 18.76 12.9255 19.96ZM15.2655 14H10.5855C10.4955 13.34 10.4255 12.68 10.4255 12C10.4255 11.32 10.4955 10.65 10.5855 10H15.2655C15.3555 10.65 15.4255 11.32 15.4255 12C15.4255 12.68 15.3555 13.34 15.2655 14ZM15.5155 19.56C16.1155 18.45 16.5755 17.25 16.8955 16H19.8455C18.8855 17.65 17.3555 18.93 15.5155 19.56ZM17.2855 14C17.3655 13.34 17.4255 12.68 17.4255 12C17.4255 11.32 17.3655 10.66 17.2855 10H20.6655C20.8255 10.64 20.9255 11.31 20.9255 12C20.9255 12.69 20.8255 13.36 20.6655 14H17.2855Z" fill="#5BA092"/>
</svg>
