<svg width="25" height="23" viewBox="0 0 25 23" fill="none" xmlns="http://www.w3.org/2000/svg">
<g clip-path="url(#clip0)">
<path fill-rule="evenodd" clip-rule="evenodd" d="M16.0651 2.39491V5.71115C18.3324 6.96338 19.7809 9.41562 19.7809 12.1742C19.7809 16.2034 16.4632 19.4716 12.3719 19.4716C8.28345 19.4716 4.9658 16.2048 4.9658 12.1742C4.9658 9.32668 6.39451 6.8815 8.77192 5.67868V2.39209C4.62556 3.76856 1.86133 7.60574 1.86133 12.1742C1.86133 17.8947 6.56815 22.5295 12.3705 22.5295C18.1743 22.5295 22.8825 17.8947 22.8825 12.1742C22.8839 7.68903 20.0971 3.84197 16.0651 2.39491Z" fill="#FDFDFD"/>
<path fill-rule="evenodd" clip-rule="evenodd" d="M12.3042 11.2327C13.4026 11.2327 14.2976 10.555 14.2976 9.71502V1.69196C14.2976 0.853375 13.4026 0.174316 12.3042 0.174316C11.2044 0.174316 10.3108 0.853375 10.3108 1.69196V9.71502C10.3108 10.555 11.2044 11.2327 12.3042 11.2327Z" fill="#FDFDFD"/>
</g>
<defs>
<clipPath id="clip0">
<rect width="24" height="22.5882" fill="white" transform="translate(0.360352 0.117676)"/>
</clipPath>
</defs>
</svg>
