<svg width="11" height="11" viewBox="0 0 11 11" fill="none" xmlns="http://www.w3.org/2000/svg">
<path d="M7.86093 10.4944C7.79943 10.4959 7.73843 10.4804 7.68493 10.4494L5.11593 9.09636L2.85394 10.3144C2.48494 10.5144 2.02294 10.3774 1.82294 10.0079C1.82044 10.0034 1.81794 9.99886 1.81544 9.99386C1.73694 9.83936 1.70944 9.66486 1.73644 9.49386L2.17644 6.89686L0.337436 5.03486C0.0369355 4.72486 0.0369355 4.23186 0.337436 3.92136C0.454435 3.79836 0.609435 3.71886 0.777435 3.69586L3.29894 3.31286L4.42043 0.976357C4.59493 0.596357 5.04443 0.429357 5.42493 0.603857C5.58993 0.679357 5.72194 0.811857 5.79744 0.976357L6.92393 3.32086L9.45393 3.70836C9.65843 3.73886 9.84194 3.85186 9.96194 4.02036C10.1859 4.34236 10.1519 4.77736 9.88093 5.06086L8.05043 6.90086L8.30543 8.30036C8.34093 8.51036 8.20243 8.71086 7.99293 8.75036C7.78693 8.78736 7.58993 8.65036 7.55293 8.44386L7.29343 7.04436C7.24993 6.78786 7.33143 6.52586 7.51343 6.34036L9.34843 4.48736L6.81843 4.09486C6.56193 4.05336 6.34444 3.88336 6.24193 3.64486L5.11593 1.31036L3.97593 3.68186C3.87344 3.92086 3.65594 4.09036 3.39944 4.13186L0.877935 4.51486L2.69944 6.36486C2.88094 6.54736 2.96244 6.80586 2.91944 7.05936L2.47944 9.65636L4.74093 8.44336C4.96493 8.31736 5.23844 8.31736 5.46244 8.44336L8.02793 9.79636C8.18443 9.88186 8.26393 10.0624 8.22143 10.2359C8.18244 10.4094 8.02943 10.5329 7.85193 10.5359L7.86093 10.4944Z" fill="#5BA092"/>
</svg>
