<svg width="20" height="16" viewBox="0 0 20 16" fill="none" xmlns="http://www.w3.org/2000/svg">
<path d="M15.3299 15.3593C15.2146 15.3616 15.1002 15.338 14.9999 15.2907L10.183 13.2256L5.9418 15.0846C5.24992 15.3899 4.38367 15.1808 4.00867 14.6168C4.00398 14.6099 3.9993 14.603 3.99461 14.5954C3.84742 14.3596 3.79586 14.0933 3.84648 13.8323L4.67148 9.86842L1.22336 7.02642C0.659922 6.55326 0.659922 5.80079 1.22336 5.32687C1.44273 5.13913 1.73336 5.01779 2.04836 4.98269L6.77617 4.39811L8.87898 0.831871C9.20617 0.251872 10.049 -0.00302303 10.7624 0.263319C11.0718 0.378556 11.3193 0.580792 11.4609 0.831871L13.573 4.41032L18.3168 5.00176C18.7002 5.04832 19.0443 5.22079 19.2693 5.47797C19.6893 5.96945 19.6255 6.63339 19.1174 7.06611L15.6852 9.87453L16.1634 12.0106C16.2299 12.3311 15.9702 12.6372 15.5774 12.6974C15.1912 12.7539 14.8218 12.5448 14.7524 12.2296L14.2659 10.0936C14.1843 9.70205 14.3371 9.30216 14.6784 9.01903L18.119 6.19076L13.3752 5.59169C12.8943 5.52834 12.4865 5.26887 12.2943 4.90484L10.183 1.34166L8.04555 4.96132C7.85336 5.32611 7.44555 5.58482 6.96461 5.64816L2.2368 6.23274L5.65211 9.05642C5.99242 9.33497 6.14523 9.72952 6.06461 10.1164L5.23961 14.0803L9.47992 12.2289C9.89992 12.0366 10.4127 12.0366 10.8327 12.2289L15.643 14.294C15.9365 14.4245 16.0855 14.7 16.0059 14.9648C15.9327 15.2296 15.6459 15.4181 15.313 15.4227L15.3299 15.3593Z" fill="#FDFDFD"/>
</svg>
