<svg width="261" height="163" viewBox="0 0 261 163" fill="none" xmlns="http://www.w3.org/2000/svg">
<ellipse cx="130.667" cy="143" rx="130" ry="20" fill="url(#paint0_radial)" fill-opacity="0.5"/>
<path fill-rule="evenodd" clip-rule="evenodd" d="M199.162 70.343C199.162 73.0535 196.959 75.257 194.248 75.257H194.19V75.14C191.447 75.14 189.224 72.9235 189.217 70.1805V70.1675V53.6445C189.217 33.8 178.362 22.945 158.576 22.945H109.826C90.027 22.945 79.107 33.865 79.107 53.6445V102.395C79.107 122.116 90.027 133.035 109.807 133.035H158.557C178.336 133.035 189.198 122.116 189.198 102.395C189.198 99.6515 191.421 97.422 194.17 97.422C196.92 97.422 199.143 99.6515 199.143 102.395C199.162 127.452 183.614 143 158.576 143H109.807C84.71 143 69.162 127.452 69.162 102.414V53.664C69.162 28.548 84.71 13 109.807 13H158.557C183.497 13 199.162 28.548 199.162 53.6445V70.343ZM126.45 86.5391L153.854 59.1286C155.759 57.2241 158.846 57.2241 160.751 59.1286C162.655 61.0331 162.655 64.1206 160.751 66.0251L129.895 96.8806C128.979 97.7906 127.737 98.3041 126.45 98.3041C125.15 98.3041 123.915 97.7906 122.999 96.8806L107.574 81.4496C105.67 79.5451 105.67 76.4576 107.574 74.5531C109.479 72.6486 112.566 72.6486 114.471 74.5531L126.45 86.5391Z" fill="#5BA092"/>
<defs>
<radialGradient id="paint0_radial" cx="0" cy="0" r="1" gradientUnits="userSpaceOnUse" gradientTransform="translate(130.667 143) rotate(90) scale(13.5 87.75)">
<stop stop-color="#5BA092"/>
<stop offset="1" stop-color="#C4C4C4" stop-opacity="0"/>
</radialGradient>
</defs>
</svg>
